<?xml version="1.0" encoding="UTF-8"?><svg xmlns="http://www.w3.org/2000/svg" width="749" height="216" viewBox="0 0 749 216"><path d="m41.65,82.7c-7.95-12.3-15.05-24.52-22.16-37.92.88-9.97,1.32-14.97,2.2-24.99,7.28,13.51,14.53,25.79,22.66,38.15-1.09,9.93-1.63,14.88-2.71,24.76Z"/><path d="m90.97,135.62c-8.8-6.49-17.59-14.41-25.44-22.94,1.29-9.85,1.94-14.78,3.24-24.68,8.04,8.54,17.02,16.45,26,22.89-1.52,9.92-2.28,14.86-3.79,24.73Z"/><path d="m145.98,163.55c-9.44-2.76-19.08-6.58-28.15-11.23,1.74-9.93,2.62-14.91,4.37-24.9,9.28,4.59,19.12,8.31,28.75,10.96-1.99,10.09-2.98,15.12-4.96,25.17Z"/><path d="m205.56,172.35c-10.04-.09-20.27-.85-30.29-2.35,2.23-10.18,3.34-15.29,5.58-25.52,10.32,1.38,20.61,1.7,30.92,1.92-2.49,10.41-3.73,15.6-6.21,25.95Z"/><path d="m268.53,167.25c-10.6,1.59-21.15,2.92-31.83,3.98,2.74-10.55,4.11-15.84,6.86-26.44,10.9-1.24,21.67-2.75,32.5-4.53-3.02,10.82-4.53,16.22-7.53,26.99Z"/><path d="m333.63,153.09c-10.87,2.83-21.78,5.5-32.74,7.91,3.27-11,4.92-16.52,8.21-27.58,11.19-2.62,22.33-5.49,33.43-8.53-3.57,11.31-5.34,16.95-8.89,28.2Z"/><path d="m399.52,134.56c-10.96,3.2-21.94,6.4-32.95,9.53,3.82-11.5,5.74-17.27,9.59-28.83,11.24-3.35,22.45-6.76,33.64-10.17-4.12,11.82-6.18,17.72-10.28,29.48Z"/><path d="m464.67,116.23c-10.79,2.81-21.58,5.78-32.38,8.85,4.38-12.02,6.57-18.04,10.97-30.13,11.03-3.28,22.06-6.47,33.07-9.48-4.68,12.34-7.01,18.49-11.66,30.76Z"/><path d="m527.44,102.63c-10.33,1.77-20.62,3.75-30.98,5.93,4.92-12.51,7.39-18.78,12.34-31.36,10.56-2.46,21.11-4.66,31.65-6.49-4.35,10.67-8.68,21.32-13.01,31.93Z"/><path d="m586.08,98.2c-9.51-.32-19.07.2-28.69.8,4.54-10.78,9.09-21.6,13.65-32.44,9.86-.75,19.54-1.18,29.31-1.25-4.77,11-9.53,21.96-14.27,32.9Z"/><path d="m638.74,107.2c-8.2-2.93-16.87-5.08-25.47-6.43,4.94-11.06,9.89-22.15,14.85-33.28,8.78,1.24,17.63,3.29,26.02,6.14-5.15,11.22-10.28,22.41-15.4,33.57Z"/><path d="m683.57,133.58c-6.55-6.01-13.9-11.37-21.32-15.6,5.29-11.22,10.59-22.48,15.91-33.77,7.57,4.16,15.08,9.49,21.78,15.5-5.47,11.32-10.93,22.61-16.37,33.86Z"/><path d="m718.8,180.83c-5.06-9.28-10.15-18.35-16.31-26.42,5.57-11.24,11.16-22.52,16.77-33.83,6.28,8.09,11.48,17.22,16.65,26.57-5.72,11.26-11.42,22.49-17.11,33.69Z"/><path d="m683.57,133.58c6.76,5.95,13.29,13.15,18.92,20.82-5.56,11.21-11.1,22.39-16.62,33.53-5.5-7.63-11.89-14.82-18.52-20.8,5.39-11.15,10.8-22.34,16.22-33.55Z"/><path d="m638.74,107.2c8.03,2.69,16.09,6.36,23.51,10.79-5.27,11.19-10.53,22.34-15.77,33.46-7.25-4.47-15.14-8.2-23.01-10.98,5.07-11.06,10.16-22.14,15.26-33.27Z"/><path d="m586.08,98.2c9.12.19,18.31,1.02,27.19,2.56-4.92,11.02-9.83,22.02-14.72,32.98-8.69-1.66-17.68-2.62-26.61-2.94,4.7-10.83,9.41-21.7,14.14-32.6Z"/><path d="m527.44,102.63c10.04-1.48,19.97-2.69,29.95-3.63-4.52,10.75-9.03,21.47-13.53,32.15-9.77.78-19.49,1.82-29.31,3.12,4.28-10.52,8.58-21.06,12.89-31.64Z"/><path d="m464.67,116.23c10.6-2.76,21.2-5.34,31.79-7.67-4.91,12.47-7.35,18.68-12.23,31.08-10.37,2.21-20.73,4.58-31.12,7.07,4.61-12.16,6.92-18.26,11.56-30.49Z"/><path d="m399.52,134.56c10.94-3.2,21.86-6.37,32.77-9.47-4.36,11.98-6.54,17.95-10.88,29.87-10.68,2.89-21.37,5.85-32.08,8.84,4.07-11.66,6.1-17.51,10.19-29.23Z"/><path d="m333.63,153.09c11.01-2.87,21.99-5.9,32.94-9.01-3.81,11.46-5.71,17.18-9.5,28.59-10.72,2.87-21.47,5.66-32.25,8.38,3.52-11.15,5.28-16.75,8.82-27.96Z"/><path d="m268.53,167.25c10.85-1.88,21.6-3.97,32.37-6.24-3.26,10.97-4.89,16.44-8.14,27.35-10.55,2.08-21.08,3.97-31.7,5.66,2.98-10.68,4.47-16.03,7.47-26.76Z"/><path d="m205.56,172.35c10.42.22,20.77-.42,31.13-1.12-2.73,10.52-4.09,15.76-6.81,26.22-10.1.76-20.35,1.01-30.49.64,2.46-10.27,3.69-15.42,6.16-25.74Z"/><path d="m145.98,163.55c9.58,2.98,19.55,5.14,29.29,6.46-2.22,10.15-3.33,15.21-5.53,25.31-9.55-1.44-19.31-3.72-28.68-6.81,1.96-9.96,2.95-14.95,4.92-24.96Z"/><path d="m90.97,135.62c8.48,6.5,17.74,12.23,26.87,16.71-1.74,9.9-2.6,14.84-4.33,24.7-8.95-4.55-18.01-10.35-26.3-16.87,1.5-9.79,2.25-14.69,3.76-24.53Z"/><path d="m41.65,82.7c7.66,10.64,15.24,20.92,23.88,29.98-1.29,9.82-1.93,14.71-3.21,24.48-8.46-9.07-15.87-19.31-23.35-29.91,1.07-9.8,1.61-14.71,2.68-24.55Z"/><path d="m36.3,131.6c-7.59-12.18-14.39-24.28-21.16-37.48.86-9.8,1.3-14.71,2.16-24.57,6.94,13.3,13.89,25.46,21.66,37.7-1.07,9.76-1.6,14.63-2.66,24.35Z"/><path d="m83.48,184.47c-8.45-6.59-16.85-14.55-24.35-23.04,1.27-9.69,1.91-14.54,3.18-24.27,7.67,8.51,16.27,16.45,24.89,22.99-1.5,9.76-2.24,14.62-3.73,24.33Z"/><path d="m136.18,213.27c-9.07-2.98-18.31-6.98-26.97-11.76,1.71-9.77,2.57-14.67,4.3-24.49,8.87,4.72,18.31,8.62,27.56,11.49-1.96,9.93-2.93,14.88-4.88,24.76Z"/><path d="m316.07,208.77c-10.44,2.36-20.88,4.6-31.39,6.7,3.22-10.82,4.83-16.24,8.07-27.12,10.73-2.3,21.4-4.74,32.06-7.3-3.51,11.12-5.25,16.66-8.74,27.72Z"/><path d="m379.22,192.76c-10.5,2.77-21.03,5.53-31.58,8.25,3.76-11.31,5.64-16.98,9.42-28.35,10.78-2.92,21.53-5.9,32.26-8.89-4.05,11.62-6.07,17.42-10.1,28.98Z"/><path d="m441.65,176.94c-10.33,2.45-20.67,5-31.03,7.62,4.3-11.81,6.46-17.73,10.78-29.61,10.58-2.83,21.15-5.58,31.7-8.23-4.6,12.12-6.89,18.16-11.46,30.22Z"/><path d="m501.78,165.64c-9.89,1.41-19.75,3.02-29.68,4.82,4.84-12.29,7.26-18.45,12.13-30.81,10.14-1.99,20.22-3.78,30.33-5.37-4.27,10.49-8.53,20.94-12.78,31.36Z"/><path d="m557.93,163.11c-9.04-.59-18.29-.59-27.47-.09,4.46-10.59,8.92-21.21,13.41-31.87,9.38-.66,18.83-.8,28.08-.35-4.68,10.8-9.36,21.57-14.01,32.31Z"/><path d="m608.35,173.43c-7.83-3.08-16.14-5.44-24.38-7.01,4.85-10.86,9.71-21.75,14.59-32.68,8.42,1.46,16.91,3.72,24.92,6.72-5.06,11.02-10.1,22.01-15.13,32.97Z"/><path d="m651.28,200.39c-6.26-6.02-13.29-11.44-20.42-15.78,5.19-11.02,10.4-22.07,15.62-33.16,7.28,4.28,14.47,9.67,20.87,15.69-5.37,11.12-10.73,22.2-16.07,33.25Z"/><path d="m557.93,163.11c8.74.46,17.55,1.55,26.04,3.31-4.83,10.83-9.65,21.62-14.46,32.39-8.3-1.87-16.91-3.09-25.47-3.68,4.62-10.64,9.24-21.32,13.89-32.02Z"/><path d="m501.78,165.64c9.6-1.13,19.15-2.2,28.68-2.62-4.44,10.56-8.87,21.09-13.29,31.58-9.29.26-18.69,1-28.06,2.12,4.21-10.33,8.43-20.69,12.66-31.09Z"/><path d="m441.65,176.94c10.17-2.3,20.31-4.46,30.46-6.48-4.82,12.25-7.22,18.36-12.02,30.54-9.93,1.83-19.84,3.8-29.8,5.9,4.53-11.95,6.8-17.94,11.36-29.96Z"/><path d="m36.3,131.6c7.31,10.55,14.55,20.75,22.83,29.83-1.27,9.65-1.9,14.47-3.16,24.08-8.1-9.09-15.18-19.26-22.31-29.76,1.05-9.63,1.58-14.46,2.64-24.15Z"/><path d="m31.05,179.69c-7.24-12.06-13.73-24.05-20.17-37.06.85-9.64,1.27-14.47,2.13-24.15,6.61,13.11,13.25,25.15,20.66,37.27-1.05,9.6-1.57,14.39-2.62,23.95Z"/><path d="m27.08,216.01c.42-3.8.82-7.51,1.37-12.58-7.07-12.01-13.41-23.94-19.69-36.86-.84,9.52-1.26,14.28-2.09,23.75,4.25,8.9,8.54,17.35,13.06,25.68h7.34Z"/><path d="m51.97,216.01c.26-2,.54-4.15.87-6.63-7.92-9.1-14.83-19.24-21.79-29.7-1.04,9.52-1.56,14.27-2.6,23.75,2.6,4.26,5.35,8.47,8.2,12.58h15.32Z"/><path d="m78.65,216.01c.34-2.22.71-4.61,1.14-7.41-8.28-6.64-16.49-14.61-23.81-23.1-1.26,9.57-1.88,14.35-3.13,23.88,1.9,2.25,3.86,4.46,5.86,6.63h19.94Z"/><path d="m106.67,216.01c.79-4.48,1.51-8.6,2.54-14.5-8.77-4.63-17.63-10.49-25.73-17.04-1.48,9.68-2.22,14.5-3.7,24.13,3.11,2.58,6.34,5.06,9.63,7.41h17.26Z"/><path d="m195.1,216.01c1.4-5.85,2.53-10.56,4.29-17.92-9.83-.24-19.86-1.14-29.66-2.77-1.85,8.47-2.93,13.38-4.52,20.69h29.89Z"/><path d="m254.92,216.01c2.18-7.8,3.63-13,6.14-22-10.39,1.41-20.72,2.56-31.17,3.44-1.98,7.62-3.23,12.46-4.82,18.56h29.85Z"/><path d="m342.66,216.01c1.51-4.53,2.98-8.95,4.98-15-10.5,2.66-21.02,5.25-31.57,7.75-.85,2.69-1.59,5.05-2.28,7.24h28.87Z"/><path d="m391.35,216.01c2.86-.7,5.72-1.41,8.57-2.11,4.27-11.71,6.4-17.58,10.69-29.35-10.45,2.7-20.91,5.44-31.4,8.21-3.32,9.53-5.27,15.12-8.11,23.25h20.24Z"/><path d="m426.83,216.01c1.04-2.73,2.15-5.67,3.46-9.12-10.11,2.25-20.22,4.59-30.36,7.01-.26.72-.52,1.42-.77,2.11h27.67Z"/><path d="m481.26,216.01c2.62-6.43,5.23-12.84,7.86-19.29-9.67,1.23-19.32,2.65-29.03,4.27-2.36,6.01-4.14,10.52-5.91,15.02h27.08Z"/><path d="m534.98,216.01c3.02-6.95,6.03-13.9,9.06-20.88-8.84-.73-17.88-.88-26.87-.53-3.01,7.16-6.01,14.28-9.01,21.41h26.82Z"/><path d="m588.81,216.01c1.52-3.31,3.03-6.6,4.55-9.91-7.65-3.16-15.77-5.61-23.85-7.3-2.57,5.75-5.12,11.47-7.68,17.21h26.98Z"/><path d="m616.06,216.01c4.92-10.44,9.85-20.9,14.8-31.4-7.08-4.51-14.8-8.31-22.51-11.18-5.01,10.92-10.01,21.81-14.99,32.67,6.73,2.63,13.45,5.99,19.73,9.91h2.98Z"/><path d="m665.56,216.01c-4.43-5.68-9.28-11-14.28-15.63-2.53,5.22-5.03,10.42-7.55,15.63h21.84Z"/><path d="m700.93,216.01c.31-.6.61-1.2.91-1.8-4.95-9.22-9.93-18.23-15.97-26.28-4.65,9.39-9.29,18.74-13.92,28.08h28.97Z"/><path d="m730.83,216.01c.49-.95.98-1.89,1.47-2.83-4.14-11.31-8.45-21.74-13.5-32.35-5.67,11.16-11.32,22.29-16.96,33.39.28.6.55,1.2.83,1.8h28.16Z"/><path d="m749,181.1c-5.58,10.72-11.15,21.42-16.69,32.08.32.94.62,1.89.94,2.83h15.76v-34.91Z"/><path d="m0,0v29.74c5.25,13.73,11,27.05,17.31,39.81.87-9.88,1.31-14.84,2.18-24.77C12.32,30.5,5.85,15.5,0,0Z"/><path d="m0,59.21v29.22c4.03,10.28,8.35,20.31,13,30.04.86-9.72,1.29-14.59,2.15-24.36-5.47-11.24-10.5-22.91-15.15-34.9Z"/><path d="m0,117.44v28.78c2.78,6.91,5.69,13.7,8.76,20.36.84-9.56,1.26-14.35,2.11-23.95-3.85-8.19-7.46-16.61-10.87-25.19Z"/><path d="m0,174.79v28.36c1.49,3.61,3.02,7.19,4.6,10.73.83-9.4,1.24-14.11,2.07-23.56-2.31-5.1-4.53-10.29-6.67-15.54Z"/></svg>
