<?xml version="1.0" encoding="UTF-8"?><svg xmlns="http://www.w3.org/2000/svg" width="762" height="127" viewBox="0 0 762 127"><path d="m215.57,33.28c-12.16.32-24.4.03-36.6-1.07,4.75-9.14,9.49-18.28,14.24-27.42,11.86,1.24,23.78,1.69,35.62,1.54-4.42,8.98-8.83,17.97-13.25,26.95Z"/><path d="m733.26,33.52c9.65,10.37,17.76,21.31,25.41,32.67.57,8.14.85,12.21,1.42,20.34-7.88-11.46-16.22-22.48-26.14-32.9-.27-8.04-.41-12.06-.68-20.11Z"/><path d="m292.51,24.89c13.32-2.41,26.55-5.01,39.74-7.78-3.38,8.37-6.76,16.75-10.14,25.12-13.54,2.99-27.12,5.81-40.8,8.44,3.73-8.6,7.46-17.19,11.19-25.79Z"/><path d="m215.57,33.28c12.74-.34,25.4-1.3,37.95-2.72-4.08,8.8-8.16,17.6-12.23,26.4-12.93,1.48-25.84,2.76-38.97,3.27,4.42-8.98,8.83-17.97,13.25-26.95Z"/><path d="m144,26.51c11.48,2.79,23.2,4.65,34.96,5.7-4.75,9.14-9.49,18.28-14.24,27.42-12.06-.92-24.1-2.65-35.91-5.34,5.06-9.26,10.13-18.52,15.19-27.78Z"/><path d="m46.29,54.07c-10.89-7.73-20.48-15.78-29.85-24.78,5.92-9.35,11.84-18.71,17.75-28.06,9.02,8.88,18.24,17.27,29.04,24.72-5.65,9.37-11.3,18.75-16.95,28.12Z"/><path d="m113.63,82.07c-11.95-2.55-23.66-6.11-34.84-10.7,5.37-9.34,10.73-18.68,16.1-28.02,10.86,4.64,22.27,8.28,33.93,10.94l-15.19,27.78Z"/><path d="m189.07,87.18c-12.85.47-25.63.68-38.58-.14,4.75-9.14,9.49-18.28,14.24-27.42,12.55.95,25.12,1.1,37.59.6-4.42,8.98-8.83,17.97-13.25,26.95Z"/><path d="m270.12,76.46c-13.62,2.58-27.26,4.9-41.07,6.9,4.08-8.8,8.16-17.6,12.23-26.4,13.46-1.8,26.75-3.91,40.03-6.29-3.73,8.6-7.46,17.19-11.19,25.79Z"/><path d="m354.3,56.94c-14.06,3.58-28.16,7.08-42.32,10.42,3.38-8.37,6.76-16.75,10.14-25.12,13.79-3.15,27.53-6.41,41.25-9.73-3.02,8.14-6.05,16.29-9.07,24.43Z"/><path d="m439.1,35.66c-14.17,3.32-28.26,6.85-42.32,10.42l8-23.73c13.72-3.32,27.46-6.58,41.25-9.73-2.31,7.68-4.62,15.36-6.93,23.04Z"/><path d="m672.28,31.65c-11.18-4.59-22.89-8.15-34.84-10.7l1.88-20.39c11.66,2.66,23.06,6.3,33.93,10.94-.39,8.06-.59,12.09-.98,20.15Z"/><path d="m734.62,73.73c-9.36-9-18.95-17.05-29.84-24.78.05-8.02.07-12.03.12-20.05,10.8,7.45,20.02,15.85,29.04,24.72.27,8.04.41,12.06.68,20.11Z"/><path d="m734.62,73.73c10.2,10.47,18.78,21.57,26.88,33.14.57,8.14.85,12.21,1.42,20.34-8.33-11.67-17.14-22.85-27.62-33.38-.27-8.04-.41-12.06-.68-20.11Z"/><path d="m672.28,31.65c11.52,4.73,22.44,10.56,32.5,17.3-.05,8.02-.07,12.03-.12,20.05-10.34-6.74-21.55-12.53-33.35-17.2.39-8.06.59-12.09.98-20.15Z"/><path d="m600.58,15.97c12.36.78,24.72,2.39,36.86,4.98-.75,8.16-1.13,12.23-1.88,20.39-12.48-2.49-25.15-3.98-37.81-4.62,1.13-8.3,1.7-12.45,2.83-20.75Z"/><path d="m522.02,19.65c13.29-1.67,26.52-2.97,39.98-3.82-1.53,8.49-2.29,12.73-3.82,21.22-13.81,1.03-27.38,2.51-41,4.37,1.61-7.26,3.23-14.51,4.84-21.77Z"/><path d="m439.1,35.66c13.86-3.25,27.79-6.36,41.85-9.1-1.96,7.46-3.92,14.92-5.88,22.38-14.42,2.96-28.7,6.29-42.91,9.76,2.31-7.68,4.62-15.36,6.93-23.04Z"/><path d="m354.3,56.94c14.17-3.61,28.31-7.26,42.48-10.86-2.67,7.91-5.33,15.82-8,23.73-14.52,3.83-29.02,7.72-43.55,11.56,3.02-8.14,6.05-16.29,9.07-24.43Z"/><path d="m270.12,76.46c14.05-2.78,28-5.82,41.85-9.1-3.38,8.37-6.76,16.75-10.14,25.12-14.2,3.5-28.51,6.77-42.91,9.76,3.73-8.6,7.46-17.19,11.19-25.79Z"/><path d="m189.07,87.18c13.46-.85,26.7-2.15,39.98-3.82-4.08,8.8-8.16,17.6-12.23,26.4-13.62,1.86-27.19,3.34-41,4.37,4.42-8.98,8.83-17.97,13.25-26.95Z"/><path d="m113.63,82.07c12.14,2.59,24.5,4.2,36.86,4.98-4.75,9.14-9.49,18.28-14.24,27.42-12.66-.64-25.34-2.13-37.81-4.62,5.06-9.26,10.13-18.52,15.19-27.78Z"/><path d="m46.29,54.07c10.06,6.74,20.97,12.57,32.5,17.3-5.36,9.34-10.73,18.68-16.1,28.02-11.8-4.67-23.01-10.46-33.35-17.2,5.65-9.37,11.3-18.75,16.95-28.12Z"/><path d="m406.85,0c-11.47,2.69-22.94,5.39-34.41,8.07-3.02,8.14-6.05,16.29-9.07,24.43,13.81-3.37,27.6-6.79,41.41-10.16,2.51-7.45,5.02-14.9,7.53-22.34h-5.46Z"/><path d="m339.16,0c-2.3,5.7-4.6,11.41-6.9,17.11,13.44-2.92,26.82-5.95,40.19-9.04l3-8.07h-36.28Z"/><path d="m297.79,0c-10.62,1.6-21.27,3.07-32.04,4.16-4.08,8.8-8.16,17.6-12.23,26.4,13.1-1.6,26.05-3.51,38.99-5.67,3.6-8.3,7.2-16.59,10.8-24.89h-5.52Z"/><path d="m119.78,0c-2.93,5.11-5.87,10.22-8.8,15.33,10.55,4.69,21.65,8.41,33.02,11.18,4.83-8.84,9.66-17.67,14.49-26.51h-38.71Z"/><path d="m78.89,0c-5.21,8.65-10.43,17.3-15.64,25.95,9.78,6.73,20.4,12.6,31.64,17.4,5.37-9.34,10.73-18.68,16.1-28.02-9.76-4.34-19.02-9.5-27.63-15.33h-4.46Z"/><path d="m16.45,29.29C10.44,23.26,5.05,16.91,0,10.38v44.91c5.48-8.67,10.97-17.33,16.45-26Z"/><path d="m449.83,0c-1.27,4.2-2.53,8.41-3.8,12.61,13.54-2.99,27.12-5.81,40.8-8.44.37-1.39.73-2.78,1.1-4.17h-38.1Z"/><path d="m512.15,0c-8.47,1.28-16.9,2.67-25.32,4.17-1.96,7.46-3.92,14.92-5.88,22.38,13.62-2.58,27.26-4.9,41.07-6.9,1.46-6.55,2.91-13.1,4.37-19.65h-14.24Z"/><path d="m564.86,0c-.96,5.32-1.68,9.34-2.85,15.83,12.85-.47,25.63-.68,38.58.14.89-6.54,1.44-10.52,2.18-15.97h-37.91Z"/><path d="m673.82,0c-.17,3.52-.33,6.84-.56,11.5,11.24,4.8,21.86,10.67,31.64,17.4.05-8.02.07-12.03.12-20.05-4.43-3.14-9.05-6.09-13.82-8.85h-17.38Z"/><path d="m718.81,0h-13.74c-.02,2.63-.03,5.36-.05,8.85,10.52,7.46,19.48,15.83,28.24,24.66-.27-8.04-.41-12.06-.68-20.11-4.47-4.61-9-9.1-13.77-13.41Z"/><path d="m737.61,0h-5.48c.15,4.3.27,7.92.45,13.41,9.3,10.23,17.61,21.11,24.67,32.43-.57-8.14-.85-12.21-1.42-20.34-5.36-8.79-11.48-17.32-18.22-25.5Z"/></svg>
