<?xml version="1.0" encoding="UTF-8"?>
<svg xmlns="http://www.w3.org/2000/svg" width="300" height="100" viewBox="0 0 300 100" fill="#FFF">
<path d="m102.86,95.09c-3.83,0-4.4-.96-3.68-4.69,3.12-15.95-3.42-31.51-20.38-36.36-18.87-5.4-38.49,8.08-38.06,27.79.08,3.84.57,7.65.94,12.41-7.27,0-14.58.08-21.88-.13-.71-.02-1.94-1.83-1.95-2.82-.13-12.95-.09-25.89-.08-38.84,0-.67-.1-1.73.26-1.95,4.04-2.56,2.76-6.58,3.02-10.21.47-6.57.99-13.13,1.6-19.68.23-2.49-1.34-2.93-3.16-3.19-3.88-.57-5.82-2.81-5.82-6.73V.41c.46-.14.93-.27,1.39-.41,5.76,4.24,11.55,8.46,17.29,12.74,4.62,3.44,9.14,7.02,13.83,10.36.72.52,2.22.41,3.18.07,14.5-4.94,28.37-12.51,43.52-14.79,12.25-1.85,37.19-1.62,49.55-.76,22.11,1.54,38.95,4.28,58.17,16.32,4.08,2.56,11.88,8.71,16.02,11.11,3.23,1.87,7.47,2.36,11.33,2.72,12.85,1.19,25.53,2.79,37.32,8.56,6.77,3.32,10.99,8.87,13.73,15.54,3.76,9.13,5.41,18.72,5.27,28.63-.04,2.8-.43,4.63-3.34,4.59-3.22-.04-6.86-.11-10.09-.05-2.87.05-4.3-.74-3.36-4.43,3.44-13.53-1.97-26.8-12.38-33.06-16.92-10.18-38.38-3.68-45.31,15.96-1.76,4.99-1.4,15.1.63,21.58,0,0-107.54,0-107.54,0ZM173.17,25.49c-13.87-4.77-28.43-6.67-43.09-7.24-6.3-.25-12.63-.23-18.94,0-9.94.36-19.76,2.54-27.61,8.56-2.64,2.02-4.3,4.43-7.21,7.53h119.91s-17.21-6.86-23.05-8.87l-.02.02Z"/>
<circle cx="70.1" cy="80" r="20"/>
<circle cx="238.89" cy="80" r="20"/>
</svg>
