<?xml version="1.0" encoding="UTF-8"?>
<svg xmlns="http://www.w3.org/2000/svg" width="201" height="100" viewBox="0 0 201 100">
<path fill="none" stroke="#fff" stroke-width="2px" d="m20.86,18.52c1.7-.18,3.42-.3,5.14-.36,6.35-.23,12.72-.25,19.06,0,14.75.57,27.35,1.7,41.31,6.47l25.27,9.62h-46.29"/>
<path fill="none" stroke="#fff" stroke-width="2px" d="m108.77,95h17.15c-2.04-6.48-2.41-16.59-.63-21.58,6.97-19.64,28.57-26.14,45.6-15.96,10.48,6.26,15.92,19.53,12.46,33.06-.95,3.69.49,4.48,3.38,4.43,3.25-.06,6.91.01,10.15.05,2.93.04,3.32-1.79,3.36-4.59.14-9.91-1.52-19.5-5.3-28.63-2.76-6.67-7-12.22-13.82-15.54-11.87-5.77-24.63-7.37-37.56-8.56-3.88-.36-8.15-.85-11.4-2.72-4.17-2.4-12.02-8.55-16.12-11.11-19.34-12.04-36.29-14.78-58.54-16.32-12.44-.86-37.54-1.09-49.87.76-2.49.37-4.94.9-7.37,1.52"/>
<circle fill="#fff" cx="154.25" cy="80" r="20"/>
</svg>
