<svg width="0" height="0" class="hidden">
  <symbol xmlns="http://www.w3.org/2000/svg" stroke="#000" stroke-width="2" viewBox="0 0 300 100" id="car4">
    <circle cx="235.95" cy="79.95" r="20"></circle>
    <circle cx="67.06" cy="80" r="20"></circle>
    <path d="m275.53,92.03c9.85-2.3,23.94-3.28,24.32-11.46-.01-4.22,1.05-11.62-2.32-14.68-1.22-1.28-2.5-2.1-6.47-4.07-16.3-7.03-17.75-12.92-30.04-16.05-14.61-1.55-41.22-2.64-55.18-5.11-14.57-4.3-37.45-23.67-50-22.84-1.46,2.99-2.46,3.83,2.64,6.15,2.94,1.65,12.95,8.35,14.3,8.81,1.95.73.8,1.47-.57,1.15-3.54-.51-5.27-.57-5.09,3.88.02,2.68.59,4.32,1.51,4.3.23,1.04-44.81.19-47.98.51.51-4.39.66-21.85-7.73-15.55-1.17,1.3-1.28,1.84-1.61,8.69-.17,3.61-.31,6.69-.33,6.83-1.93.95-11.16-.83-13.96-1.09-6.16-1.09-13.31-2.58-17.33-5.05-2.82-1.56-4.35-2.16-6.37-2.55-3.88-.73-6.95-.6-15.78.6-19.71,1.78-47.49,10.78-56.9,27.76-1.15.99-.44,8.2-.49,9.55,1.11,12.65-1.05,16.06,7.97,17.32,6.99,1.57,27.71,3.82,32.35,3.55-4.6-49.62,57.88-49.16,53.16-.18,46.7.02,72.7,1.68,116.54.79l.7-.36c-.75-9.69,1.28-26.13,6.78-30.09,13.57-13.59,41.13-5.48,42.69,10.62,3.11,22.62-7.98,25.02,15.18,18.57Zm-86.87-50.19c.43.32-.02.35-4.8.43l-5.27.12c2.95-.85,2.98-3.34.36-4.66-1.59-.93-3.45-2.71-4.85-3.66,1.25-.81,14.23,7.66,14.54,7.78h.01Z"></path>
  </symbol>
  <symbol xmlns="http://www.w3.org/2000/svg" stroke="#000" stroke-width="2" viewBox="0 0 300 100" id="car5">
    <path fill-rule="evenodd" d="m299.67,65.11c1.95,26.51-4.44,24.56-27.51,23.92,14.73-45.09-64.78-55.46-53.22-.33h-121.48c13.51-43.71-60.68-55.41-54.48-1.66-8.1-1.33-31.66,3.35-37.66-3.25-3.8-4.18-9.34-23.21-.85-25.32C-.36,20.95,19.34,32.23,47.1,28.48,62.76,17.54,83.44.9,105.51.52c52-.88,65.05-4.22,114.6,28.9,19.05,12.72,70.9-5.32,71.83,28.29,4.59.17,6.9,2.94,7.73,7.43h0v-.02Zm-229.01-7.45c28.22-.4,28.22,42.76,0,42.33-28.22.4-28.22-42.74,0-42.33Zm174.7,0c28.22-.4,28.22,42.76,0,42.33-28.22.4-28.22-42.74,0-42.33Zm-157.46-21.17h-13.22c-1.32-1.45-3.95-4.37-5.27-5.81l14.78-19.98,3.71,25.79h0Zm117.92-9.37c-19.58-13.64-40.17-24.16-65.07-22.61l4.41,31.73h60.66v-9.11h0ZM131.19,4.15c-17.54,0-34.73-1.35-42.49,4.44l3.76,27.64h43.63l-4.9-32.08h0Z"></path>
  </symbol>
  <symbol xmlns="http://www.w3.org/2000/svg" stroke="#000" stroke-width="2" viewBox="0 0 300 100" id="car6">
    <path fill-rule="evenodd" d="m46.37,55.46c30.86-.43,30.86,44.97,0,44.53-30.86.41-30.86-44.97,0-44.53Zm133.22-25.51c-5.27.32-3.88,5.16-2.71,8.81l-56.63-2.01-4.73-29.36c34.4-1.89,45.93,7.48,75.3,21.93-3.75-.16-7.48-.16-11.24.64h0ZM106.87,7.92c-20.14.25-35.27-2.9-50.48,12.3-3.92,4.04-13.72,13.78-2.19,13.92l58.82,2.24-6.14-28.45h0Zm191.75,55.1c2.54,4.04,1.17,17.7-.88,20.92-1.12,3.86-15.87,1.73-18.58,2.24,7.31-49.05-75.86-55.1-64.16,3.33H79.86c1.54-58.73-69.08-50.69-66.84-3.72C-4.46,88.57,1,75.77.22,65.18h3.49c3.41-11.27-.93-36.37,12.82-42.41C72.55-11.57,157.36-5.59,209.5,30.78l59.63,10.52c14.67.34,24.21,8.51,27.69,21.72,0,0,1.8,0,1.8,0Zm-52.17-7.55c30.86-.43,30.86,44.97,0,44.53-30.86.41-30.86-44.97,0-44.53Z"></path>
  </symbol>
  <symbol xmlns="http://www.w3.org/2000/svg" stroke="#000" stroke-width="2" viewBox="0 0 300 100" id="car7">
    <path d="m219.54,82.58H89.81c5.74-39.41-59.99-41.31-56.63-1.5-10.63-4.43-30.68-1.17-32.74-14.1-1.7-7.49,1.76-13.43,5.15-19.86,1.22-6.63,2.03-13.32,3.18-19.97C37.45,19.44,66.65,5.51,97.04,1.28c46.14-5.13,93.89,5.27,132.14,29.57,14.37,2.81,29.49,3.43,43.51,8.35,16.12,5.14,32.03,17.94,26.01,34.76-.78,10.17-14.75,6.75-22.75,8.93,5.63-40.97-61.84-41.02-56.4-.32h0ZM96.97,30.43c6.47-1.04,32.01,4.18,31.33-4.33-1.22-5.59,3.4-17.58-4.58-19.05-19.37-.08-42.44,1.61-55.5,16.37-7.55,10.7,21.87,5.05,28.74,7.01h0Zm81.47,2.56c5.77-.02,18.33,1.6,26.78.37-6.5-13.65-58.45-32.91-67.05-22.06,6.03,30.26,7.9,17.97,40.28,21.69Z"></path>
    <path d="m61.47,56.43c30.38-.64,30.45,43.92.23,43.56-30.3.48-30.66-43.82-.23-43.56Z"></path>
    <path d="m247.66,56.42c30.42-.47,30.46,43.82.14,43.57-30.24.54-30.51-43.98-.14-43.57Z"></path>
  </symbol>
  <symbol xmlns="http://www.w3.org/2000/svg" stroke="#000" stroke-width="2" viewBox="0 0 300 100" id="car1">
    <path d="m102.86,95.09c-3.83,0-4.4-.96-3.68-4.69,3.12-15.95-3.42-31.51-20.38-36.36-18.87-5.4-38.49,8.08-38.06,27.79.08,3.84.57,7.65.94,12.41-7.27,0-14.58.08-21.88-.13-.71-.02-1.94-1.83-1.95-2.82-.13-12.95-.09-25.89-.08-38.84,0-.67-.1-1.73.26-1.95,4.04-2.56,2.76-6.58,3.02-10.21.47-6.57.99-13.13,1.6-19.68.23-2.49-1.34-2.93-3.16-3.19-3.88-.57-5.82-2.81-5.82-6.73V.41c.46-.14.93-.27,1.39-.41,5.76,4.24,11.55,8.46,17.29,12.74,4.62,3.44,9.14,7.02,13.83,10.36.72.52,2.22.41,3.18.07,14.5-4.94,28.37-12.51,43.52-14.79,12.25-1.85,37.19-1.62,49.55-.76,22.11,1.54,38.95,4.28,58.17,16.32,4.08,2.56,11.88,8.71,16.02,11.11,3.23,1.87,7.47,2.36,11.33,2.72,12.85,1.19,25.53,2.79,37.32,8.56,6.77,3.32,10.99,8.87,13.73,15.54,3.76,9.13,5.41,18.72,5.27,28.63-.04,2.8-.43,4.63-3.34,4.59-3.22-.04-6.86-.11-10.09-.05-2.87.05-4.3-.74-3.36-4.43,3.44-13.53-1.97-26.8-12.38-33.06-16.92-10.18-38.38-3.68-45.31,15.96-1.76,4.99-1.4,15.1.63,21.58,0,0-107.54,0-107.54,0ZM173.17,25.49c-13.87-4.77-28.43-6.67-43.09-7.24-6.3-.25-12.63-.23-18.94,0-9.94.36-19.76,2.54-27.61,8.56-2.64,2.02-4.3,4.43-7.21,7.53h119.91s-17.21-6.86-23.05-8.87l-.02.02Z"></path>
    <circle cx="70.1" cy="80" r="20"></circle>
    <circle cx="238.89" cy="80" r="20"></circle>
  </symbol>
  <symbol xmlns="http://www.w3.org/2000/svg" stroke="#000" stroke-width="2" viewBox="0 0 300 100" id="car2">
    <path fill-rule="evenodd" d="m57.28,44.96c-14.48,0-26.2,12.31-26.2,27.52s11.72,27.52,26.2,27.52,26.2-12.31,26.2-27.52-11.72-27.52-26.2-27.52Zm49.73-21.98c1.44,3.25,2.59,6.9,3.47,10.85,2,6.59-.95,7.98-7.79,5.28-5.03-3.15-10.06-6.34-15.09-9.49-2.56-1.9-3.78-3.77-3.37-5.62.83-3.64,7.52-5.54,13.01-6.67,6.98-1.46,6.49-1.77,9.77,5.64h0Zm80.35,19.23c-6.76-7.62-14.58-12.57-23.61-17.34-19.78-10.46-31.88-9.18-52.88-9.18l7.06,19.23c2.95,4.1,6.3,7,11.38,7.29h58.06,0Zm54.39,2.74c-14.48,0-26.2,12.31-26.2,27.52s11.72,27.52,26.2,27.52,26.2-12.31,26.2-27.52-11.72-27.52-26.2-27.52Zm-41.41-8.38c-8.59-5.62-17.94-10.64-28.3-14.92-31.51-13.07-55.61-15.39-88.67-4.88-9.96,3.97-19.92,7.96-29.88,10.41C43.65,29.65,1.05,32.01,0,39.52l10.52,13.21c-3.83,3.48-6.96,7.78-8.11,14.46.32,4.13,1.39,7.6,3.25,10.36,3.15,4.74,12.38,9.64,17.36,6.85,1.59-.9,2.49-2.7,2.47-5.75-.15-61.3,70.29-54.32,64.99,7.24h122.9c-22.75-61.66,74.32-61.89,57.08-2.13,6.06,6.88,20.34-3.48,29.54-25.52-2.51-2.62-5.27-5.1-8.35-7.42.15-.13-.15.49.37-.44.51-.93-1.24-4.79-4.86-7.03-18.95-11.67-64.62-11.36-86.82-6.8v.02Z"></path>
  </symbol>
  <symbol xmlns="http://www.w3.org/2000/svg" stroke="#000" stroke-width="2" viewBox="0 0 300 100" id="car3">
    <path d="m83.48.25c-2.49.73-2.37.63-2.53,2.71.26,3.68-4.57,3.45-14.12,7.76-15.34,5.7-24.63,10.74-33.38,14.29-8.61,1.03-17.47,2.82-27.05,2.73-.78,1.46-3.13,4.13-1.62,4.77.87.9.89,1.58.07,3.65-.88.99-.71,8.12-.82,10.86-2.97,2.31-3.95,5.16-4.03,10.95.46,6.05-.79,12.06,2.3,14.71,6.04,9.45,14.22,9.12,38.33,10.67-2.6-43.64,58.55-38.88,49.85,4.48,24.76-1.71,139.8,3,140.63-2.36-4.64-19.05,12.9-37.1,31.01-32,13.76,3.27,22.03,19.18,18.34,32.99,7.54-.87,16.1.49,18.41-5.62l.56-1.27-.38-3.82c-.52-8.94,2.86-22.26-.73-26.45-10.45-12.03-60.78-18-81.21-17.75-5.35,0-5.3,0-8.14-2.07C191.41,18.72,167.41,1.88,140.72,1.56c-9.47-.5-32.07-.43-42.93.66-7.08.54-6.71.54-8-.24C86.51,0,85.41-.32,83.48.25Zm44.22,8.11c.44,3.58,3.4,21.4,3.73,24.76-5.67-.13-48.02-.18-57.14-2.38-2.3-.63-4.64-2.9-5.84-5.62C61.39,7.85,114.89,6.77,127.42,6.72c0,0,.28,1.64.28,1.64Zm14.78-1.14c15.95,1,35.39,6.81,47.74,18.45-3.8.42-5.06,4.36-3.64,7.6-10.61-.02-31.93-.07-42.53-.13l-1.38-3.89c-2.58-7.35-6.99-21.38-6.99-22.3,0-.15,2.23-.05,6.8.27Z"></path>
    <circle cx="66.56" cy="79.88" r="20"></circle>
    <circle cx="256.19" cy="80" r="20"></circle>
  </symbol>
</svg>
