<?xml version="1.0" encoding="UTF-8"?>
<svg xmlns="http://www.w3.org/2000/svg" width="124.77" height="121.86" viewBox="0 0 124.77 121.86">
<defs><style>.d{stroke-miterlimit:10;}.d,.e{fill:none;stroke:#888;}.e{stroke-linecap:round;stroke-linejoin:round;stroke-width:2px;}</style></defs>
<path class="e" d="m13.23,98.16L1,21.87,123.77,1l-9.18,101.76-60.26-1.89s-12.77,21.15-12.77,19.95-3.99-21.15-3.99-21.15l-24.34-1.51Z"/>
<path class="d" d="m40.46,65.34c.01,11.19-20.63,13.04-20.59,1.02.09-1.8,2.88-1.91,2.72.04.21,6.64,9.92,7.07,13.7,3.13,1.03-1.09,1.65-2.58,1.62-3.98-.1-1.74,2.8-2.08,2.68-.18l-.13-.03Zm-5.44-17.95c-2.88-1.65-6.54-1.09-8.78,1.13-1.8,1.72-.35,3.73-2.59,4.16-.75.03-1.32-.53-1.27-1.28.02-6.16,9-9.69,14.05-6.25,1.71.87,5.11,6.02,1.93,7.1-.75.12-1.36-.39-1.41-1.14-.09-1.62-1.01-2.97-2.15-3.7l.22-.02Zm-8.25,7.79c3.66,3.18,8.17,1.84,11.77,5.08.48.48.44,1.32-.09,1.85-.99,1-1.9.02-2.72-.57-3.71-1.91-9.59-1.54-12.07-5.84-.39-.58-.22-1.38.4-1.84,1.29-.94,1.92.53,2.72,1.27v.04Z"/>
<path class="d" d="m47.88,65.41c-.75.07-1.32-.44-1.32-1.19v-20.63c0-.75.57-1.37,1.32-1.45.75-.07,1.32.44,1.32,1.19v20.63c0,.75-.57,1.37-1.32,1.45Zm4.74,3.27c3.7,1.42,9.18.23,11.42-1.17,1.45-.5,2.39-3.05,4-2.02,2.16,2.75-6.24,6.32-9.75,6.36-2.72.63-11.92-1.05-9.7-4.45,1.51-1.34,2.48.94,4,1.23l.04.04Zm16.2-28.55c.75-.07,1.32.44,1.32,1.19v20.63c0,.75-.57,1.37-1.32,1.45-.75.07-1.32-.44-1.32-1.19v-20.63c0-.75.57-1.37,1.32-1.45Z"/>
<path class="d" d="m78.7,39.11c.75-.07,1.32.44,1.32,1.19v28.1c0,.75-.57,1.37-1.32,1.45-.75.07-1.32-.44-1.32-1.19v-28.1c0-.75.57-1.37,1.32-1.45Zm19.49,7.13c0,5.49-3.6,8.91-8.16,9.36l-6.76.66c-1.8.17-1.63-2.56,0-2.63,5.07-.65,12.35.3,12.29-7.13-.07-7.72-6.63-5.68-12.42-5.19-1.8.17-1.63-2.57,0-2.63,0,0,6.37-.63,6.37-.63,6.01-.59,8.69,3.45,8.69,8.19Z"/>
<path class="d" d="m106.01,64.21c.09,3.62-5.75,4.63-5.88.58-.09-3.62,5.75-4.62,5.88-.58Zm-2.94-27.67c.75-.07,1.32.44,1.32,1.19v21.51c0,.75-.57,1.37-1.32,1.45-.75.07-1.32-.44-1.32-1.19v-21.51c0-.75.57-1.37,1.32-1.45Z"/>
</svg>
