<?xml version="1.0" encoding="UTF-8"?>
<svg xmlns="http://www.w3.org/2000/svg" width="138.23" height="124.1" viewBox="0 0 138.23 124.1">
<defs><style>.d{stroke-miterlimit:10;}.d,.e{fill:none;stroke:#888;}.e{stroke-linecap:round;stroke-linejoin:round;stroke-width:2px;}</style></defs>
<path class="e" d="m137.23,52.05c0-28.19-30.5-51.05-68.11-51.05S1,23.85,1,52.05s30.5,51.05,68.11,51.05c7.98,0,15.64-1.04,22.76-2.93,3.33,7.11,4.8,15.11,4.1,22.94,7.21-5.67,12.28-13.99,14.01-22.99.48-2.51.69-5.06.66-7.61,16.16-9.33,26.59-23.98,26.59-40.45Z"/>
<path class="d" d="m25.68,36.69c.75,0,1.32.57,1.32,1.32v28.1c0,.75-.57,1.32-1.32,1.32s-1.32-.57-1.32-1.32v-28.1c0-.75.57-1.32,1.32-1.32Zm2.46,14.31c0-.75.57-1.32,1.32-1.32h11.68c.75,0,1.32.57,1.32,1.32s-.57,1.32-1.32,1.32h-11.68c-.75,0-1.32-.57-1.32-1.32Zm16.68-14.31c.75,0,1.32.57,1.32,1.32v28.1c0,.75-.57,1.32-1.32,1.32s-1.32-.57-1.32-1.32v-28.1c0-.75.57-1.32,1.32-1.32Z"/>
<path class="d" d="m54.92,36.69c.75,0,1.32.57,1.32,1.32v28.1c0,.75-.57,1.32-1.32,1.32s-1.32-.57-1.32-1.32v-28.1c0-.75.57-1.32,1.32-1.32Zm2.37,29.41c0-.75.57-1.32,1.32-1.32h14.05c.75,0,1.32.57,1.32,1.32s-.57,1.32-1.32,1.32h-14.05c-.75,0-1.32-.57-1.32-1.32Zm16.64-28.1c0,.75-.57,1.32-1.32,1.32h-13.92c-.75,0-1.32-.57-1.32-1.32s.57-1.32,1.32-1.32h13.92c.75,0,1.32.57,1.32,1.32Zm-16.55,12.99c0-.75.57-1.32,1.32-1.32h11.33c.75,0,1.32.57,1.32,1.32s-.57,1.32-1.32,1.32h-11.33c-.75,0-1.32-.57-1.32-1.32Z"/>
<path class="d" d="m91.93,52.05c-.53.48-1.36.44-1.84-.09l-11.98-13.08c-.48-.53-.44-1.36.09-1.84.53-.48,1.36-.44,1.84.09l11.98,13.08c.48.53.44,1.36-.09,1.84Zm-.88,15.36c-.75,0-1.32-.57-1.32-1.32v-10.54c0-.75.57-1.32,1.32-1.32s1.32.57,1.32,1.32v10.54c0,.75-.57,1.32-1.32,1.32Zm12.91-30.38c.53.48.57,1.32.09,1.84l-7.59,8.25c-.48.53-1.32.57-1.84.09-.53-.48-.57-1.32-.09-1.84l7.59-8.25c.48-.53,1.32-.57,1.84-.09Z"/>
<path class="d" d="m111.43,64.48c0,1.62-1.32,2.94-2.94,2.94s-2.94-1.32-2.94-2.94,1.32-2.94,2.94-2.94,2.94,1.32,2.94,2.94Zm-2.94-27.96c.75,0,1.32.57,1.32,1.32v21.51c0,.75-.57,1.32-1.32,1.32s-1.32-.57-1.32-1.32v-21.51c0-.75.57-1.32,1.32-1.32Z"/>
</svg>
