<?xml version="1.0" encoding="UTF-8"?>
<svg xmlns="http://www.w3.org/2000/svg" width="157.37" height="163.22" viewBox="0 0 157.37 163.22">
<defs><style>.d{fill:#39b54a;}.d,.e,.f{stroke-miterlimit:10;}.d,.f{stroke:#000;}.e{stroke:#fff;stroke-width:5px;}.f{fill:#fff;}</style></defs>
<path class="d" d="m49.72,150.89c-4.37,3.19-7.79,9.25-13.46,9.87-5.5-2.24.27-7.14,2.52-9.7-4.29,1.55-9.63,1.02-11.7,6.63-4.13,4.5-9.42-2.21-3.33-5.2,4.59-4.4,14.11-5.77,14.72-12.76-8.07-.35-14.65,14.21-24.21,13.69.05-2.9-.42-5.59,3.14-6.36-.18-.37-.35-.73-.53-1.1-3.58,1.2-13.59,9.83-14.02,2.49,6.64-4.13,13.15-6.54,21.08-10.75-45.08-20.6-14.93-57.03,5.89-35.61,3.11-8.46,6.22-16.93,9.38-25.54-10.7-9.59-18.99-22.68-9.66-36.34,1.69-2.84,2.07-5.08.84-8.28C19.98,6.17,58.47-12.39,72.46,11.67c4.33,6.91,8.75,6.97,13.02.16,13.69-23.78,52-6.49,42.37,19.55-1.22,3.52-1.07,6.01.79,9.18,8.89,13.53,1.3,26.71-10.2,35.58,3.13,8.23,6.22,16.37,9.4,24.72,15.83-16.48,39.98,9.02,23.54,23.47-4.95,4.82-10.95,8.57-16.98,13.18,5.32,3.2,9.66,8.27,16.69,8.92,2.4.22,4.09,3.38,1.85,4.99-4.8.98-8.45-4.04-13.32-4.74,12.73,16.83-14.78-4.7-20.65-7.37-.63,9.14,24.96,11.46,15.6,19.99-1.1.28-3.48-.62-3.7-1.44-1.63-6.09-7.68-4.7-11.07-7.66-.31.38-.63.77-.94,1.15,2.64,2.09,8.07,7.52,2.67,9.44-5.86.07-10.48-11.52-15.23-8.43,6.78,14.12-5.7,14.62-7.1-3.55-12.1.08-21.78,2.47-32.41.42-13.73-8.78-6.27,18.28-16.63,12.32-2.32-3.53,3.6-8.15-.42-10.66Z"/>
<path class="e" d="m93.35,23.79c.03-6.87,5.52-12.48,12.27-12.56,6.97-.08,12.91,5.92,12.73,12.87-.18,6.8-5.85,12.21-12.72,12.13-6.91-.08-12.31-5.56-12.28-12.44Z"/>
<path class="e" d="m40.25,23.79c.03-6.87,5.52-12.48,12.27-12.56,6.97-.08,12.91,5.92,12.73,12.87-.18,6.8-5.85,12.21-12.72,12.13-6.91-.08-12.31-5.56-12.28-12.44Z"/>
<path class="f" d="m114.91,65.66c0,4.42-15.67,8-35,8s-35-3.58-35-8h70Z"/>
</svg>
