<?xml version="1.0" encoding="UTF-8"?><svg id="b" xmlns="http://www.w3.org/2000/svg" width="173.7" height="448.74" viewBox="0 0 173.7 448.74"><defs><style>.d{fill:#30323e;}.d,.e,.f,.g,.h,.i,.j,.k,.l,.m,.n,.o,.p,.q,.r{stroke-width:0px;}.e{fill:#004f4f;}.f{fill:#fd9c8d;}.g{fill:#ffe6d9;}.h{fill:#353b4a;}.i{fill:#005f5b;}.j{fill:#382823;}.k{fill:#ff9c8a;}.l{fill:#2c3945;}.m{fill:#004243;}.n{fill:#ee795c;}.o{fill:#fff;}.p{fill:#fffffb;}.q{fill:#ffcbb2;}.r{fill:#f2e8de;}</style></defs><g id="c"><path class="l" d="m85.35,63.62c-8.86.67-28.99-7.12-7.31-25.97,25.2-19.44,18.04,25.87,7.31,25.97Z"/><path class="l" d="m50.93,56.49c5.35,5.92,15.16,3.87,12.27-10.25-2.11-10.31-21.17.39-12.27,10.25Z"/><path class="g" d="m74.57,70.5c-10.94,0-21.92-3.21-.09-3.21s11.12,3.21.09,3.21Z"/><path class="f" d="m107.92,94.52c-46.66-22.69,3.86-36.82-44.04-36.14.93,24.62-5.55,26.38-20.24,34.77,17.42,15.52,49.26,14.23,64.28,1.37Z"/><path class="f" d="m57.97,23.09c-9.74,35.91,18.04,60.97,33.05,33.24C118.12,6.29,65.9-6.14,57.97,23.09Z"/><path class="l" d="m84.04,12.59c-.08,12.52-24.71.74-27.62,30.44-13.92-27.31,25.43-62.09,27.62-30.44Z"/><path class="f" d="m98.24,40.54c-3.34-1.58-4.63,5.9-5.16,9.62-1.06,7.34,10.42-7.14,5.16-9.62Z"/><path class="f" d="m54.95,33.67c3.64-.53,2.79,7.01,2.27,10.74-1.03,7.35-8-9.9-2.27-10.74Z"/><path class="j" d="m65.68,39.05c-1.21-.18-1.48-5.04,1.45-4.61,1.56.24.53,4.9-1.45,4.61Z"/><path class="j" d="m86.39,42.16c1.21.18,2.82-4.4-.11-4.84-1.56-.24-1.87,4.54.11,4.84Z"/><path class="h" d="m69.48,28.93c3.82,4.09-2.72.41-6.66,1.91-4.65,1.23.77-3.72,6.66-1.91Z"/><path class="h" d="m85.4,31.52c-5.07,2.23,2.2,1.43,5.42,4.41,3.82,2.99.69-3.73-5.42-4.41Z"/><path class="n" d="m72.28,46.78c-.31.36-.22.87.18,1.11,3.91,2.36,3.91.29,2.67.19-5.36,1.07,4.06-7.5.46-8.79-.3,1.03-.63,4.38-3.3,7.49Z"/><path class="o" d="m79.97,55.33c-6.83,10.24-14.21-1.72-11.78-1.39,2.34,1.25,6.71,2.49,11.78,1.39Z"/><path class="n" d="m55.18,37.45c1.01-.05-.84,3.95.77,4.1.09,1.8-2.34-1.16-.77-4.1Z"/><path class="n" d="m95.85,47.94c.88-.79.95-2.22.94-3.5,0-.36.53-.36.53,0,.04,4.8-2.28,4.23-1.47,3.51Z"/><path class="n" d="m64.64,62.74c7.06,8.01,17.9,5.16,20.9.62,1.19-1.77.1,4.3-8.9,4.94-9.94.71-14.03-7.88-12-5.56Z"/><path class="f" d="m75.89,227.91c-1.92,53.15,18.93,174.71,13.24,194.43,4.7,4.54,13.61,3.6,13.52-.82-.83-40.17,13.02-53.42,5.38-91.91-10.14-51.11,9.97-107.17,8.8-115.08-3.73-25.2-43.43-35.17-40.94,13.38Z"/><path class="f" d="m72.73,339.03c.81,5.47,8.42,110.34-15.03,86.48,4.46-1.13-26.36-205.67-23.3-195.9-1.73-30.6,14.72-37.49,26.41-35.11,32.5,6.6,3.97,98.44,11.93,144.53Z"/><path class="g" d="m2.07,210.62c2.01,17.59,45.02,14.67,46.56-32.33-6.18-21.08,9.62-80.18-7.35-89.07C12.83,91.73,7.95,181.62,2.07,210.62Z"/><path class="q" d="m14.43,220.97c-25.54-2.7-6.86-38.49-5.68-54.55,8.59-21.74,2.64-70.84,32.66-77.69,15.26,4.37,5.51,43.52,5.4,59.63,6.92,29.28.1,73.84-32.38,72.61Zm-11.86-10.35c.09,8.44,9.8,11.21,18.23,7.57,31.51-3.95,28.71-46.22,24.99-69.76-.08-15.25,9.68-54.15-4.67-58.73-26.52-.09-34.27,98.36-38.56,120.92Z"/><path class="i" d="m103.41,170.72c16.47,31.03,15.47,43.3,23.27,101.86-28.08,16.75-63.82,10.01-94.59,5.9-6.38-54.48.22-71.29,14.27-106.21,16.03,3.64,40.73,1.54,57.05-1.55Z"/><path class="n" d="m15.62,253.46c3.46-.57.45,4.75-1.63,1.63,6.69,10.94-13.77,2.6-9.54-7.51.85-1.79,2.03-.26,3.17.48,7.7,4.95,13.86.86,8,5.41Z"/><path class="f" d="m1.51,243.8c-6.19,9.55,8.57,23.63,10.7,18.71-.29-3.16-11.57-6.78-6-15.55,3.95-6.23,8.32.51,6.8,4.08-.42.98-2.26,3.12-.83,6.07,7.31-4.51,4.95-12.29,5.62-16.93,1.89-12.16-3.92-14.67-16.29,3.62Z"/><path class="m" d="m103.41,170.72c-16.19,4.13-64.9,14.01-55.24-9.87,0,0,52.86-1.44,52.86-1.44l2.38,11.3Z"/><path class="k" d="m122.27,241.89c-2.46.22-.25-5.6.14-11.99.7-11.25-5.28-13.39-5.43-8.59,1.48,10.95-7.5,8.44-1.94-7.57,9.52-38.16,16.52,26.79,7.23,28.15Z"/><path class="g" d="m89.9,108.77c6.57,18.97,56.49,36.93,47.31,45.71-7.81,9.45-23.99,24.63-13.85,36.69,3.01,6.53,4.58,8.09,11.6,7.66,34.44,15.52,41.57-40.45,35.5-63.46-14.23-20.12-35.59-26.73-55.68-42.16-13.31-11.66-29.25,2.9-24.87,15.55Z"/><path class="q" d="m150.73,202.91c-38.62-4.05-38.59-23.31-13.87-48.79-.31-19.39-72.06-36.25-40.88-63.06,12.18-10.63,57.49,27.01,68.1,36.56,18.46,16.34,8.36,64.05-13.35,75.29Zm-15.17-4.6c33.78,15.49,40.27-41.35,34.45-62.69-14.04-19.95-36.69-27.3-55.57-42.02-10.82-10.91-28.68,1.8-24.05,15,3.22,9.3,17.07,18.37,29.28,26.37,10.65,7.89,22.54,12.54,17.9,19.88-6.96,7.76-19.44,21.29-16.62,31.83,4.36,5.45,5.53,13.78,14.61,11.63Z"/><path class="q" d="m117.51,203.08c11.04,9.76,8.91,3.21,17.44-4.24-4.88-.76-8.65-3.35-11.59-7.66l-5.84,11.91Z"/><path class="g" d="m59.08,82.73c15.45,15.93,32.28-8.83,52.56,8.34,12.17,77.96-17.46,77.85-63.53,71.36-14.24-4.67-12.78-53.39-6.84-73.21,0,0,6.39-2.96,17.8-6.49Z"/><path class="q" d="m69.25,165.22c-39.86,8.79-35.77-46.27-28.19-76.47-.08.24,7.5-3.52,18.36-6.67,1.22,7.92,28.22,7.11,29.53.15,6.78.64,16.52,4.58,23.19,8.75,7.3,65.05-2.73,75.32-42.9,74.23Zm-27.55-75.64c-12.23,59.98-4.4,85.94,57.13,71.61,7.08,9.07,35.15-75.1-9.03-78.21-12.27,14.85-34.38-5.4-48.1,6.6Z"/><path class="e" d="m71.2,178.02c-5.13.36-3.4-13.26-2.97-14.24,2.53-1.32,9.78-1.51,10.91-.6,1.58,3.07,2.27,17.23-.83,13.43-.09,2.07-5.72.91-7.11,1.42Zm5.83-13.59c-9.83-.69-7.5,2.69-6.85,11.65,1.07.34,6.08-.26,8.34-.43-.19-.94.78-10.28-1.5-11.22Z"/><path class="q" d="m19.39,231.87c-14.62,1.72-9.08-2.62-12.12-13.57,4.45,2.19,8.98,2.22,13.78.34l-1.66,13.23Z"/><path class="l" d="m96.02,74.65c1.61-26.55,11.07-39.9.25-61.73-5.77-11.65-13.5-12.43-14.55-7.62-.13.6,13.9,75.86,14.3,69.35Z"/><path class="q" d="m89.45,82.35c-1.03,7.53-28.84,8.54-30.37.38l2.88-14.34c16.97,6.99,26.28-9.85,27.49,13.96Z"/><path class="d" d="m83.78,13.49c-.96-1.96.58-5.76-1.54-8,1.61-2.57,3.66,6.94,1.54,8Z"/><path class="d" d="m69.23,7c-.85-4.2,12.15-5.9,11.45-1.58-3.04-2.35-7.83-1.87-11.45,1.58Z"/><path class="d" d="m76.37,9.6c-4.49-.58,4.77-2.39,5.53-1.1-.52,1.21-3.93.61-5.53,1.1Z"/><path class="d" d="m68.94,20.11c1.33-7.07,11-2.01,13.2-8.1.35,7.04-9.07,2.21-13.2,8.1Z"/><path class="d" d="m56.63,24.6c-1.04-3.9,3.34-11.17,6.12-13.43-1.39,3.9-4.94,9.01-6.12,13.43Z"/><path class="d" d="m58.38,29.87c-1.63-2.2,2.76-10.14,3.74-7.63-2.32,1.94-2.1,4.39-3.74,7.63Z"/><path class="d" d="m93.89,15.02c-1.19-3.93-4.56-9.1-8.82-8.87,2.02-3.61,11.1,5.09,8.82,8.87Z"/><path class="d" d="m88.68,13.31c-.76-1.13-2.19-2.31-3.33-2.94.73-2,5.23,2.22,3.33,2.94Z"/><path class="d" d="m89.46,35.11c-3.43-9.38-2.84-14.6-4.37-20.71,3.12,4.59,3.08,11.84,4.37,20.71Z"/><path class="d" d="m97.03,42.18c-.25-5.96,1.3-14.82-1.09-21.42,4.14,5.25,2.88,16.06,1.09,21.42Z"/><path class="d" d="m95.22,59.12c-1.28-4.36-2.68-11.09-2.76-15.55,1.9,3.79,3.45,11.42,2.76,15.55Z"/><path class="d" d="m51.99,53.27c-5.12-1.07,2.13-10.41,1.56-6.5-4.4,2.48-.71,5.18-1.56,6.5Z"/><path class="d" d="m58.66,55.66c-1.77-.27-4.34-7.53-1.88-5.99-.75,2.25,3.07,4.74,1.88,5.99Z"/><path class="d" d="m56.64,57.92c-1.31.38-5.36-3.25-2.72-2.81.21,1.45,4.5,1.67,2.72,2.81Z"/><path class="q" d="m145.76,158.97c-2.09-3.18-3.1-7.55-7.27-6.73.45.16,6.95-11.82,7-8.19,0,0-5.09,7.23-5.09,7.23,3.13.56,6.6,5.9,5.35,7.69Z"/><path class="q" d="m158.59,142.79c-1.52-5.6,4.51-7.24,2.12-15.13,4.31,7.02-1.51,10.17-2.12,15.13Z"/><path class="q" d="m21,219.06c-2.6-3.23-1.24-9.81-.07-2.45,1.34-2.2,2.88-6.28,5.36-6.76-1.05,2.86-4.51,5.69-5.28,9.21Z"/><path class="q" d="m7.39,216.85c-1.42-1.51-1.78-6.73-.06-7.99.04,2.03.58,6.23.06,7.99Z"/><path class="q" d="m124.63,189.35c-1.82-2.13.33-8.85,3.12-9.17-1.75,2.51-2.66,6.31-3.12,9.17Z"/><path class="q" d="m134.94,197.58c-1.35-.65,6.78-4.68,7.88-6.26-.27,3.09-5.03,5.39-7.88,6.26Z"/><path class="q" d="m25.24,139.85c-4.18-2.07-8.12-9.41-5.59-13.51-.54,6.25,3.73,9.89,5.59,13.51Z"/><path class="q" d="m35.78,175.9c.98-3.7,10.13-8.43,9.18-11.81,2.89,2.94-5.11,8.66-9.18,11.81Z"/><path class="q" d="m52.12,160.49c-2.51-1.16-6.38-11.11-3.32-10.65-1.12,4,3.58,8.1,3.32,10.65Z"/><path class="q" d="m91.11,159.89c1.87-3.5,7.22-9.36,7.72-14.84,1.33,5.1-3.35,12.03-7.72,14.84Z"/><path class="m" d="m49.13,278.47c-3.07-32.47.27-72.08,8.88-102.16-6.75,30.91-9.97,69.34-8.88,102.16Z"/><path class="m" d="m103.36,277.06c1.56-39.29-1.76-74.72-10.13-101.98,10.15,26.17,13.71,63.13,10.13,101.98Z"/><path class="m" d="m38.72,194.89c4.09-5.87,11.15-15.13,14.4-21.09-1.74,6.82-7.66,15.31-14.4,21.09Z"/><path class="m" d="m111.73,190.61c-6.42-1.68-15.13-12.7-15.03-18.82,1.97,7.14,11.68,16.12,15.03,18.82Z"/><path class="r" d="m32.05,447.49c-3.81-5.07,26.59-21.51,25.64-21.98,4.77,3.04,11.12,1.46,13.5-1.19,1.66,3.5,6.47,16.12,1.73,17.42-2.83.78-38.73,9.16-40.86,5.74Z"/><path class="p" d="m35.85,448.74c-17.01-.86,18.36-21.51,22.32-23.54,5.84,4.03,11.34-1.07,13.48-1.11,13.98,23.96-12.81,20.81-35.8,24.65Zm-3.36-1.53c1.74,2.79,34.4-4.35,40.3-5.97,4.14-2.5-.23-11.79-1.75-16.07-2.72,2.38-8.59,3.76-13.33.93-3.56,3.38-27.91,16.44-25.21,21.11Z"/><path class="p" d="m45.81,441.07c-1.83.17-7.22-2.09-4.6-4.15,1.52-.13.8,1.08,2.56,1.64,2.82.16,6.11,1.61,2.03,2.51Z"/><path class="p" d="m51.12,437.19c-1.9.12-6.59-2.08-4.89-4.33,1.9-.39,2.94,3.1,5.36,2.27,1.84-.02,1.18,2.48-.47,2.06Z"/><path class="p" d="m55.79,433.44c-2.18.84-8.35-3.85-3.75-3.5,1.16,1.51,8.89,1.83,3.75,3.5Z"/><path class="r" d="m62.92,443.59c-.45-9,29.11-20.88,26.21-21.25,4.69,3.18,11.08,1.77,13.53-.82,1.38,3.12,6.18,16.27,1.19,17.49-2.87.7-38.86,8.09-40.92,4.58Z"/><path class="p" d="m67.56,444.98c-20.08-2.19,25.62-24.07,21.29-23.06,4.47,2.4,11.03,2.14,13.43-.74,2.35.12,5.34,13.22,3.71,16.65-1.51,2.99-25.22,6.32-38.43,7.16Zm-4.2-1.65c1.68,2.86,34.21-3.32,40.36-4.82,4.33-2.39.22-11.7-1.25-16.13-2.78,2.3-8.68,3.51-13.34.56.59,1.69-25.35,11.95-25.77,20.39Z"/><path class="p" d="m76.19,438.66c-3.71,1.13-7.66-7.22-3.15-3.99-1.26,1.16,6.99,2.27,3.15,3.99Z"/><path class="p" d="m81.31,434.7c-2.56.91-8.31-5.36-3.64-4.12.5,2.03,7.18,2.1,3.64,4.12Z"/><path class="p" d="m85.65,431.14c-1.82-.06-5.79-1.65-4.22-3.54,1.39-.73,2.94,2.19,4.56,1.47,2.04-.4,1.53,2.49-.34,2.07Z"/></g></svg>