<?xml version="1.0" encoding="UTF-8"?>
<svg xmlns="http://www.w3.org/2000/svg" width="141.69" height="461.29" viewBox="0 0 141.69 461.29">
<defs><style>.d{fill:#382823;}.d,.e,.f,.g,.h,.i,.j,.k,.l,.m,.n,.o,.p{stroke-width:0px;}.e{fill:#ec795c;}.f{fill:#ff9c8a;}.g{fill:#fd434c;}.h{fill:#4d3931;}.i{fill:#ee795c;}.j{fill:#fff;}.k{fill:#e95b4b;}.l{fill:#bd2f2f;}.m{fill:#fffffb;}.n{fill:#fb9a8b;}.o{fill:#323d4d;}.p{fill:#f2e8de;}</style></defs>
<path class="g" d="m58.25,64.64c-3.96-2.25,28.73-1.63,25.02,0-8.62,3.78-20.4,2.63-25.02,0Z"/>
<path class="h" d="m27.17,92.86c9.33-8.86,10.42-17.21,3.85-28.13-2.52-10.12,6.53-14.62,8.34-17.01,5.36-7.1-3.28-33.54,13.59-44.67,5.6-3.69,13.84-3.91,18.7.67,10.91-7.52,22.17,4.27,25,16.2,1.24,7.64-2.76,15.87.31,23.01,5.37,6.36,16.93,22.84,5.56,34.82-3.53,4.24,2.63,10.97,4.01,16.28,0,0-79.36-1.17-79.36-1.17Z"/>
<path class="n" d="m103.88,89.13c-46.36-21.33,3.55-35.23-44.04-34.45,1.04,23.62-6,25.36-20.24,33.14,17.42,14.79,49.25,13.57,64.28,1.31Z"/>
<path class="n" d="m50.09,23.74c-4.67,35.24,26.28,55.02,37.31,26.77C107.32-.48,53.9-4.94,50.09,23.74Z"/>
<path class="n" d="m92.37,34.6c-3.52-1.02-3.76,6.21-3.78,9.8-.04,7.08,9.33-8.18,3.78-9.8Z"/>
<path class="n" d="m48.57,34.15c3.53-1.01,3.73,6.23,3.73,9.82,0,7.08-9.29-8.23-3.73-9.82Z"/>
<path class="d" d="m59.93,37.73c-1.22,0-2.16-4.55.8-4.55,1.58,0,1.2,4.55-.8,4.55Z"/>
<path class="d" d="m80.86,37.78c1.22,0,2.19-4.54-.77-4.55-1.58,0-1.22,4.55.77,4.55Z"/>
<path class="h" d="m62.15,27.38c4.41,2.36-2.11,1.89-6.08,3.24-4.59,1.55.83-3.57,6.08-3.24Z"/>
<path class="h" d="m77.44,27.84c-4.59,2.17,2.39,2.07,5.93,3.49,4.51,1.77-.63-3.6-5.93-3.49Z"/>
<path class="e" d="m67.86,45.12c4.2,1.68,3.91-.27,2.66-.19-4.15.27.01-1.49.15-8.22-.96-1.94-1.06,1.54-1.11,2.17-1.19,5.25-3.04,5.7-1.7,6.24Z"/>
<path class="j" d="m75.84,51.23c-3.37,9.92-13.85,1.23-11.49-.12,2.61-.9,6.75,1.41,11.49.12Z"/>
<path class="e" d="m49.31,37.68c.99-.22-.3,3.83,1.33,3.76.34,1.69-2.47-.76-1.33-3.76Z"/>
<path class="e" d="m91.02,41.92c.77-.87.63-2.23.44-3.43-.05-.34.47-.42.52-.08.7,4.52-1.67,4.31-.97,3.51Z"/>
<path class="e" d="m60.61,58.83c7.05,7.64,17.9,4.91,20.9.59-1.1,7.95-22.3,3.67-20.9-.59Z"/>
<path class="f" d="m46.37,439.11c14.62,19.44,14.3-13.7,13.38-22.08-25.56-1.27-14.68.24-13.38,22.08Z"/>
<path class="f" d="m92.26,439.06c14.08,19.82,14.68-13.32,13.99-21.72,0,0-16.85-.56-16.85-.56l2.86,22.28Z"/>
<path class="p" d="m20.73,460.05c-3.75-4.91,26.63-20.5,25.64-20.95,4.77,2.9,11.12,1.39,13.5-1.14,1.66,3.34,6.47,15.37,1.73,16.61-2.83.74-38.73,8.73-40.86,5.48Z"/>
<path class="m" d="m24.6,461.29c-17.19-.82,18.25-20.54,22.23-22.48,5.39,3.74,11.37-.86,13.48-1.06,14.07,23.26-13.4,19.79-35.71,23.54Zm21.77-21.61c-3.45,3.17-27.87,15.63-25.23,20.1,1.74,2.66,34.43-4.14,40.32-5.68,4.14-2.34-.23-11.27-1.75-15.31-2.71,2.28-8.6,3.6-13.34.89Z"/>
<path class="m" d="m34.49,453.96c-1.81.15-7.14-1.93-4.61-4,1.48-.14.8,1.05,2.55,1.56,2.8.13,6.09,1.56,2.05,2.44Z"/>
<path class="m" d="m39.79,450.27c-1.9.1-6.5-1.92-4.9-4.16,1.86-.4,2.97,2.95,5.37,2.15,1.8,0,1.13,2.43-.47,2.01Z"/>
<path class="m" d="m44.47,446.69c-2.13.8-8.29-3.61-3.78-3.39,1.15,1.43,8.87,1.75,3.78,3.39Z"/>
<path class="p" d="m66.05,459.32c-.38-8.68,29.32-19.99,26.21-20.26,4.69,3.03,11.08,1.69,13.52-.78,1.38,2.98,6.18,15.51,1.19,16.67-2.87.67-38.86,7.71-40.92,4.37Z"/>
<path class="m" d="m70.69,460.66c-20.25-1.84,25.22-22.81,21.3-22.02,4.48,2.34,11.04,2.02,13.44-.71,15.1,22.96-10.69,19.39-34.73,22.72Zm-4.23-1.6c1.68,2.73,34.23-3.16,40.39-4.59,4.33-2.22.21-11.18-1.25-15.37-2.77,2.2-8.69,3.37-13.35.54,1.09,1.24-25.71,11.7-25.79,19.41Z"/>
<path class="m" d="m79.32,454.64c-1.26.4-7.5-2.55-4.25-4.74,2.15.64.06,2.36,4.4,2.77,1.19.15,1.04,2-.15,1.97Z"/>
<path class="m" d="m84.44,450.86c-1.93-.04-6.53-1.95-5.05-4.23,1.82-.54,2.84,2.69,5.09,2.25,1.26.03,1.22,2-.04,1.98Z"/>
<path class="m" d="m88.77,447.48c-1.81-.07-5.71-1.52-4.23-3.41,1.38-.74,2.89,2.07,4.59,1.38,2-.36,1.46,2.44-.36,2.03Z"/>
<path class="o" d="m67.68,427.97c-.03,1.15-.99,2.08-2.17,2.08-28.57.14-29.42.91-29.53-1.92-5.85-282.44-19.91-152.53,3.9-259.1,20.01.12,42.95-.29,63.17-1.02,26.66,31.68,7.88,227.23,9.94,259.66-.03,1.15-.99,2.08-2.16,2.09-28.38.28-29.27,1.05-29.39-1.79l-7.87-187.79c-.7-5.64-5.9,188.79-5.87,187.8Z"/>
<path class="m" d="m73.76,229.13c-3.81-7.33-6.26-18.45-4.51-26.34.13,8.28,2.68,18.73,4.51,26.34Z"/>
<path class="m" d="m29.86,209.81c5.51-6.81,9.78-8.87,14.33-35.75-2.54,26.42-6.97,30.27-14.33,35.75Z"/>
<path class="m" d="m114.2,209.68c-7.95-3.55-11.83-6.82-18.68-36.37,8.93,29.99,12.38,31.08,18.68,36.37Z"/>
<path class="i" d="m65.69,236.47c2.44-.2,10.46-1.27,10.78-6.89.46-10.99-19.52,1.23-10.78,6.89Z"/>
<path class="f" d="m97.83,196.22s11.94,8.35,11.94,8.35c-12.89,13.89-31.65,35.13-36.43,34.37-17.54-2.77-2.37-6.34.03-8.19,4.17-3.21-2.96-6.22-5.36-4-1.29,1.53-2.26,7.94-4.98,4.38-.25-1.23,2.34-2.69.98-3.58-.97-.64-.3-4.17,3.19-5.82,21.96-10.36,8.99,10.2,30.63-25.51Z"/>
<path class="i" d="m75.33,222.14c-.36-3.41,4.63-.18,1.49,1.68,1.44.81,2.85-1.85,4.32-1.21,2.79,1.2-4.21,14.46-12.14,10.16-1.7-.92-.14-1.99.64-3.08,5.23-7.28,1.58-13.52,5.68-7.55Z"/>
<path class="f" d="m34.55,206.41l9.25-10.19,13.85,22.1c11.01,2.47,19.66.25,20.15,7.67-2.45.56-4.13-1.01-4.96-1.42-3.39-1.67-10.17,2.25-4.34,6.44,8.22,5.9,12.35-4.95,15.43-5.07,2.79-.11.42,4.31-5.96,9.6-20.45,1.99-.83,7.74-43.42-29.12Z"/>
<path class="i" d="m73.84,237.54c-2.05-.74-11.66-.26-8.57-1.92-.8,1.74,4.38.23,6.64,1.02.13,1.45,9.72-.8,12.74-10.28-10.26,5.92-18.53,10.59-18.31.34,1.33-5.81,9.41-.08,11.78-1.1.66-2.18-3.52-3.97-6.41-5.31,3.19-.1,8.01,3.52,6.75,5.68-2.71,1.69-10.01-4.77-11.64.9-.02,11.73,11.18,1.18,18.17-.86.4,6.61-11.76,12.57-11.15,11.55Z"/>
<path class="m" d="m56.65,76.93c5.82,5.75,21.34,5.75,28.91.6.6-.41-1.87-1.14,23.8,8.81,3.66,20.53,5.84,71.31-6.33,81.67-73.08,33.77-79.01-22.08-68.35-82.83.74-1.06,21.1-9.09,21.96-8.25Z"/>
<path class="p" d="m70.02,177.45c-47.09,2.75-40.97-37.58-37.23-77.27.06-20.68,5.37-17.46,23.38-23.8,6.27,5.03,20.77,6.48,29.12.74,2.52-.44,16.4,5.99,24.26,8.76,5.09,35.07,12.47,98.62-39.53,91.57Zm-34.86-92.04c-10.12,61.34-5.79,115.28,67.56,82.23,11.54-9.84,10.16-58.43,6.2-80.94-8.81-3.26-18.09-7.41-23.09-8.76-21.01,11.37-27.29-8.21-50.68,7.47Z"/>
<path class="k" d="m9.61,110.58c-17.58,71.93-14.63,57.5,40.41,112.23,1.44,1.43,10.7-4.55,9.55-6.57l-31.15-54.86c4.26-31.25-2.62-66.25,27.84-84.86-33.03,9.61-40.42,8.62-46.64,34.07Z"/>
<path class="l" d="m50.71,223.51C10.66,183.66-14.07,183.38,8.69,112.26c3.64-27.88,23.87-29.51,49.39-36.8-33.48,22.43-24.17,51.75-29.13,85.84,0,0,31.04,54.68,31.04,54.68.62,3.49-6.53,7.19-9.29,7.52ZM9.61,110.58c-12.56,56.33-15.54,60.79,17.87,89.97,6.59,2.41,19.11,27.33,29.07,19.1,9.12-.64-29.53-55.92-28.66-58.2,5.31-30.7-4.54-63.55,26.54-83.89-24.74,6.4-39.55,9.32-44.82,33.03Z"/>
<path class="k" d="m132.43,111.27c17.57,71.91,13.03,52.06-39.07,113.16-1.25,1.46-9.99-6.71-9.07-8.4l29.33-53.97c-4.37-31.45,2.82-65.67-27.65-84.82,32.84,9.58,40.24,8.58,46.46,34.02Z"/>
<path class="l" d="m92.93,225.11c-3.05-.42-9.87-7.01-9.07-9.31,0,0,29.24-53.8,29.24-53.8-5.02-34.1,4.42-63.01-28.91-85.79,25.05,7.38,45.1,8.48,48.96,35.91,22.91,73.17-4.04,68.15-40.22,112.98Zm-5.18-146.83c31.09,20.82,21,52.95,26.4,83.85-.05.24-29.35,53.9-29.42,54.14-.97.85,8.19,9.19,8.27,7.83,11.16-13.09,20.05-22.37,27.19-29.83,25.79-26.27,25.28-28.18,11.76-82.88-4.24-24.95-20.27-26.3-44.2-33.11Z"/>
<path class="k" d="m86.69,77.46c-6.99,6.43-25.54,7.37-31.55-.62,6.1-23.85-1.57-4.19,27.58-12.04.91-.24.71.45,3.97,12.66Z"/>
<path class="l" d="m70.32,83.05c-16.05,0-18.11-7.91-11.75-18.85,6.13.59,8.08,4.4,24.01.11,2.72.33,2.83,8.74,4.58,13.02-2.75,3.86-10.27,5.57-16.84,5.72Zm-14.65-6.33c10.04,10.34,38.82,5.94,27.17-11.5-21.81,7.22-23.94-9.12-27.17,11.5Z"/>
<path class="h" d="m100.66,48.41c-2.61-7.6,4.61-29.12-4.85-41.43-8.6-11.19-29.7-7.06-24.09,2.08,25.7,41.82,9.04,21.13,28.93,39.35Z"/>
<path class="h" d="m39.35,47.72c2.75-8,1.35-31.83,8.21-40.74,11.55-12.25,29.15-6.74,25.27,4.03-26.59,13.49-11.98,31.54-33.47,36.71Z"/>
<path class="d" d="m71.79,3.43c1.79-.84-.26,5.14,1.66,6.02.81.98-2.6,1.81-1.66-6.02Z"/>
<path class="d" d="m55.49,4.35c4.79-5.28,16.17-1.4,14.95-.02-5.24-2.92-9.96-1.68-14.95.02Z"/>
<path class="d" d="m70.87,6.12c1.24,1.44-3.84.59-4.78,1.64-1.09.45-1-1.9,4.78-1.64Z"/>
<path class="d" d="m56.98,18.46c3.26-4.04,11.87-7.37,14.24-9.29-2.9,4.17-11.8,7.57-14.24,9.29Z"/>
<path class="d" d="m79.31,18.77c-2.33-2.92-1.14-9.26-5.27-9.61-2.05-.17,2.88-3.36,4.49,5.25-.35,1.25,2.56,4.71.78,4.35Z"/>
<path class="d" d="m74.54,6.29c-.57.09-1.53-1.62,3-.4.81.66,4.32-.19,3.13,1.11-2.15.48-4.2-1-6.13-.71Z"/>
<path class="d" d="m74.99,3.28c2.03-1.56,10.63-3.52,10.29-.94-3.13-1.9-9.2,2.3-10.29.94Z"/>
<path class="d" d="m48.71,12.01c.65,2.35-5.04,9.04-3.64,13.7.07,2.76-3.24-4.72,3.64-13.7Z"/>
<path class="d" d="m44.45,39.18c2.67-.6,7.41-5.21,6.82-10.64,4.35,1.55-6.21,14.55-6.82,10.64Z"/>
<path class="d" d="m84.89,25.69c1.25-.8,1.36,7.63,7.87,12.4-.74.98-7.87-5.61-7.87-12.4Z"/>
<path class="d" d="m94.23,31.56c-2-8.25,4.48-18.5-6.67-22.54,10.93.94,7.32,15.41,6.67,22.54Z"/>
<path class="d" d="m39.84,78.52c2.56-16.54-15.01-21.21,5.95-30.02-21.61,12.05.61,15.05-5.95,30.02Z"/>
<path class="d" d="m52.39,74.8c1.37-1.27-1.41-11.2,1.31-8.87-1.56.47,1.53,10.79-1.31,8.87Z"/>
<path class="d" d="m45.99,74.64c4.22-4.94-2.82-13.18,2.55-15.15-3.7,4.66,3.09,13.15-2.55,15.15Z"/>
<path class="d" d="m86.09,63.65c2.07.28-.98,8.65,2.81,11.27,1.21,1.35-4.02,1.5-2.81-11.27Z"/>
<path class="d" d="m94.5,76.48c-3.89-5.31.68-6.91-1.75-16,4.56,4.48-1.67,12.31,2.41,15.53.31.43-.35.9-.67.47Z"/>
<path class="d" d="m101.04,66.15c7.53-12.45-6.15-17.87-6.92-19.53,18.46,5.63,3.37,20.01,5.8,32.94-1.29,2.73-3.15-6.85,1.12-13.41Z"/>
</svg>
