<?xml version="1.0" encoding="UTF-8"?>
<svg xmlns="http://www.w3.org/2000/svg" width="366" height="100" viewBox="0 0 366 100">
<path fill="#fff" d="m89.16,95.09c-3.83,0-4.4-.96-3.68-4.69,3.12-15.95-3.42-31.51-20.37-36.36-18.86-5.4-38.48,8.08-38.05,27.79.08,3.84.57,7.65.94,12.41-7.27,0-14.57.08-21.87-.13-.71-.02-1.94-1.83-1.95-2.82-.13-12.95-.09-25.89-.08-38.84,0-.67-.1-1.73.26-1.95,4.04-2.56,2.76-6.58,3.02-10.21.47-6.57.99-13.13,1.6-19.68.23-2.49-1.34-2.93-3.16-3.19-3.88-.57-5.82-2.81-5.82-6.73V.41c.46-.14.93-.27,1.39-.41,5.76,4.24,11.55,8.46,17.28,12.74,4.62,3.44,9.14,7.02,13.82,10.36.72.52,2.22.41,3.18.07,14.49-4.94,28.36-12.51,43.5-14.79,12.25-1.85,37.18-1.62,49.53-.76,22.1,1.54,38.94,4.28,58.15,16.32,4.08,2.56,11.88,8.71,16.01,11.11,3.23,1.87,7.47,2.36,11.33,2.72,12.85,1.19,25.52,2.79,37.31,8.56,6.77,3.32,10.99,8.87,13.72,15.54,3.76,9.13,5.41,18.72,5.27,28.63-.04,2.8-.43,4.63-3.34,4.59-3.22-.04-6.86-.11-10.09-.05-2.87.05-4.3-.74-3.36-4.43,3.44-13.53-1.97-26.8-12.38-33.06-16.91-10.18-38.37-3.68-45.29,15.96-1.76,4.99-1.4,15.1.63,21.58h-107.52ZM159.27,25.42c-13.86-4.77-28.25-6.6-42.91-7.17-6.3-.25-12.63-.23-18.93,0-9.94.36-19.75,2.54-27.6,8.56-2.64,2.02-4.3,4.43-7.21,7.53h119.87l-23.22-8.92Z"/>
<circle fill="#fff" cx="56.36" cy="80" r="20"/>
<circle fill="#fff" cx="225.15" cy="80" r="20"/>
<path fill="none" stroke="#fff" stroke-width="2px" d="m186.82,18.52c1.69-.18,3.4-.3,5.11-.36,6.31-.23,12.64-.25,18.93,0,14.65.57,27.16,1.7,41.03,6.47l25.1,9.62h-45.98"/>
<path fill="none" stroke="#fff" stroke-width="2px" d="m274.14,95h17.03c-2.03-6.48-2.39-16.59-.63-21.58,6.93-19.64,28.38-26.14,45.29-15.96,10.41,6.26,15.81,19.53,12.38,33.06-.94,3.69.49,4.48,3.36,4.43,3.23-.06,6.87.01,10.09.05,2.91.04,3.3-1.79,3.34-4.59.14-9.91-1.51-19.5-5.27-28.63-2.74-6.67-6.96-12.22-13.72-15.54-11.79-5.77-24.46-7.37-37.31-8.56-3.86-.36-8.1-.85-11.33-2.72-4.14-2.4-11.94-8.55-16.01-11.11-19.21-12.04-36.05-14.78-58.15-16.32-12.36-.86-37.29-1.09-49.53.76-2.47.37-4.91.9-7.32,1.52"/>
<circle fill="#fff" cx="319.68" cy="80" r="20"/>
</svg>
