<?xml version="1.0" encoding="UTF-8"?>
<svg id="b" xmlns="http://www.w3.org/2000/svg" width="330" height="330" viewBox="0 0 330 330">
<circle fill="#047db7" cx="165" cy="165" r="165"/>
<path fill="#3998d3" d="m144,27c83.99,0,155.87,51.77,185.5,125.14C322.94,67.02,251.8,0,165,0c-48.79,0-92.63,21.18-122.84,54.85,29.83-17.69,64.65-27.85,101.84-27.85Z"/>
<path fill="#2b5278" d="m162.11,92.14c-46.94,0-85,38.06-85,85,0,16.88,4.94,32.6,13.43,45.83l-10.32,46.45,45.31-15.54c11.08,5.29,23.48,8.26,36.58,8.26,46.94,0,85-38.06,85-85s-38.06-85-85-85Z"/>
<path fill="#2b5278" d="m200,311C99.14,311,15.74,236.34,2,139.28c-1.31,8.38-2,16.97-2,25.72,0,91.13,73.87,165,165,165,33.16,0,64.04-9.79,89.9-26.63-17.44,4.97-35.86,7.63-54.9,7.63Z"/>
<path fill="#fff" d="m165,80c-46.94,0-85,38.06-85,85,0,16.88,4.94,32.6,13.43,45.83l-10.32,46.45,45.31-15.54c11.08,5.29,23.48,8.26,36.58,8.26,46.94,0,85-38.06,85-85s-38.06-85-85-85Z"/>
<path fill="#ccc" d="m179,235c-46.94,0-85-38.06-85-85,0-8.34,1.22-16.38,3.46-23.99-6.64,11.47-10.46,24.78-10.46,38.99,0,15.87,4.75,30.63,12.9,42.95l-8.9,40.05,38.91-13.34c10.55,5.32,22.46,8.34,35.09,8.34,16.13,0,31.12-4.9,43.56-13.29-9.21,3.42-19.17,5.29-29.56,5.29Z"/>
<circle fill="#333" cx="165" cy="165" r="11.5"/>
<circle fill="#333" cx="130" cy="165" r="11.5"/>
<circle fill="#333" cx="200" cy="165" r="11.5"/>
</svg>
